<?xml version="1.0" encoding="utf-8"?>
<svg viewBox="0 0 500 500" xmlns="http://www.w3.org/2000/svg" xmlns:bx="https://boxy-svg.com">
  <g>
    <g>
      <path d="M 242.874 227.433 m -215.558 0 a 215.558 214.961 0 1 0 431.116 0 a 215.558 214.961 0 1 0 -431.116 0 Z M 242.874 227.433 m -196.435 0 a 196.435 199.048 0 0 1 392.87 0 a 196.435 199.048 0 0 1 -392.87 0 Z" style="" bx:shape="ring 242.874 227.433 196.435 199.048 215.558 214.961 1@e0ba032f"/>
    </g>
  </g>
  <path d="M 192.884 260.07 m -31.644 0 a 31.644 33.102 0 1 0 63.288 0 a 31.644 33.102 0 1 0 -63.288 0 Z M 192.884 260.07 m -12.626 0 a 12.626 12.855 0 0 1 25.252 0 a 12.626 12.855 0 0 1 -25.252 0 Z" style="" transform="matrix(0.999831, -0.018376, 0, 1.000169, 11.104645, 4.417781)" bx:shape="ring 192.884 260.07 12.626 12.855 31.644 33.102 1@41dab33e" bx:origin="0.491 0.509"/>
  <path d="M 349.65 139.569 L 349.942 140.152 L 349.359 140.152 L 349.65 139.569 Z" style="fill: rgb(216, 216, 216);" bx:shape="triangle 349.359 139.569 0.583 0.583 0.5 0 1@659ac02d"/>
  <rect x="-339.51" y="46.119" width="20.072" height="215.717" style="" transform="matrix(0.271046, 0.962566, 0.79059, -0.881786, 239.79454, 603.555725)"/>
  <rect x="-339.51" y="38.471" width="20.072" height="179.945" style="" transform="matrix(-0.823837, 0.566826, 1.089875, 0.463963, -114.931419, 454.152161)" bx:origin="0.546 0.501"/>
  <g transform="matrix(0.496272, 0, 0, 0.546429, 331.20929, 95.194748)" style="">
    <g>
      <path d="M 50.396 101.163 L 56.94 118.906 C 57.186 119.574 57.822 120.017 58.533 120.017 C 59.244 120.017 59.88 119.574 60.126 118.906 L 66.67 101.163 C 71.967 86.799 83.29 75.476 97.653 70.18 L 115.396 63.636 C 116.063 63.39 116.506 62.754 116.506 62.043 C 116.506 61.332 116.063 60.696 115.396 60.45 L 97.652 53.906 C 83.289 48.609 71.966 37.287 66.67 22.924 L 60.126 5.181 C 59.88 4.514 59.244 4.071 58.533 4.071 C 57.822 4.071 59.535 3.448 59.289 4.115 L 50.396 22.924 C 45.099 37.287 33.777 48.609 19.413 53.906 L 1.669 60.45 C 1.002 60.696 0.559 61.332 0.559 62.043 C 0.559 62.754 1.002 63.39 1.669 63.636 L 19.412 70.18 C 33.776 75.476 45.099 86.798 50.396 101.163 Z"/>
      <path d="M 96.359 193.671 L 85.779 189.771 C 77.215 186.613 70.463 179.861 67.303 171.296 L 63.402 160.716 C 63.255 160.319 62.876 160.054 62.452 160.054 C 62.028 160.054 61.649 160.319 61.502 160.716 L 57.601 171.295 C 54.443 179.86 47.691 186.612 39.125 189.771 L 28.547 193.671 C 28.148 193.817 27.885 194.197 27.885 194.621 C 27.885 195.045 28.149 195.425 28.547 195.571 L 39.126 199.473 C 47.69 202.631 54.442 209.383 57.601 217.948 L 61.502 228.528 C 61.649 228.926 62.028 229.19 62.452 229.19 C 62.876 229.19 63.256 228.926 63.402 228.528 L 67.304 217.947 C 70.462 209.383 77.213 202.632 85.778 199.473 L 96.359 195.571 C 96.757 195.425 97.021 195.045 97.021 194.621 C 97.021 194.197 96.758 193.817 96.359 193.671 Z"/>
    </g>
  </g>
  <g transform="matrix(0.496272, 0, 0, 0.546429, 329.461029, 107.43251)" style=""/>
  <g transform="matrix(0.496272, 0, 0, 0.546429, 329.461029, 107.43251)" style=""/>
  <g transform="matrix(0.496272, 0, 0, 0.546429, 329.461029, 107.43251)" style=""/>
  <g transform="matrix(0.496272, 0, 0, 0.546429, 329.461029, 107.43251)" style=""/>
  <g transform="matrix(0.496272, 0, 0, 0.546429, 329.461029, 107.43251)" style=""/>
  <g transform="matrix(0.496272, 0, 0, 0.546429, 329.461029, 107.43251)" style=""/>
  <g transform="matrix(0.496272, 0, 0, 0.546429, 329.461029, 107.43251)" style=""/>
  <g transform="matrix(0.496272, 0, 0, 0.546429, 329.461029, 107.43251)" style=""/>
  <g transform="matrix(0.496272, 0, 0, 0.546429, 329.461029, 107.43251)" style=""/>
  <g transform="matrix(0.496272, 0, 0, 0.546429, 329.461029, 107.43251)" style=""/>
  <g transform="matrix(0.496272, 0, 0, 0.546429, 329.461029, 107.43251)" style=""/>
  <g transform="matrix(0.496272, 0, 0, 0.546429, 329.461029, 107.43251)" style=""/>
  <g transform="matrix(0.496272, 0, 0, 0.546429, 329.461029, 107.43251)" style=""/>
  <g transform="matrix(0.496272, 0, 0, 0.546429, 329.461029, 107.43251)" style=""/>
  <g transform="matrix(0.496272, 0, 0, 0.546429, 329.461029, 107.43251)" style=""/>
  <path d="M 417.177 169.644 L 411.926 167.513 C 407.676 165.788 404.326 162.098 402.757 157.418 L 400.821 151.637 C 400.748 151.42 400.56 151.275 400.35 151.275 C 400.14 151.275 399.951 151.42 399.879 151.637 L 397.943 157.417 C 396.375 162.098 393.024 165.787 388.773 167.513 L 383.524 169.644 C 383.326 169.724 383.195 169.932 383.195 170.163 C 383.195 170.395 383.326 170.603 383.524 170.683 L 388.774 172.815 C 393.024 174.54 396.375 178.23 397.943 182.91 L 399.879 188.691 C 399.951 188.909 400.14 189.053 400.35 189.053 C 400.56 189.053 400.749 188.909 400.821 188.691 L 402.758 182.909 C 404.325 178.23 407.675 174.541 411.926 172.815 L 417.177 170.683 C 417.375 170.603 417.506 170.395 417.506 170.163 C 417.506 169.932 417.375 169.724 417.177 169.644 Z"/>
</svg>