<?xml version="1.0" encoding="iso-8859-1"?>
<!-- Generator: Adobe Illustrator 16.0.0, SVG Export Plug-In . SVG Version: 6.00 Build 0)  -->
<!DOCTYPE svg PUBLIC "-//W3C//DTD SVG 1.1//EN" "http://www.w3.org/Graphics/SVG/1.1/DTD/svg11.dtd">
<svg version="1.1" id="Capa_1" xmlns="http://www.w3.org/2000/svg" xmlns:xlink="http://www.w3.org/1999/xlink" x="0px" y="0px"
	 width="559.686px" height="559.686px" viewBox="0 0 559.686 559.686" style="enable-background:new 0 0 559.686 559.686;"
	 xml:space="preserve">
<g>
	<g>
		<path d="M0.818,395.34c1.444,3.485,4.614,5.957,8.351,6.502l90.512,13.194c12.785,17.069,27.852,32.146,44.884,44.918
			l13.149,90.506c0.542,3.733,3.011,6.906,6.496,8.354c3.492,1.444,7.479,0.946,10.502-1.307l73.321-54.664
			c20.988,3.006,42.464,3.012,63.498,0.01l73.306,54.707c1.878,1.401,4.134,2.126,6.407,2.126c1.383,0,2.775-0.266,4.094-0.813
			c3.489-1.444,5.958-4.614,6.503-8.351l13.194-90.512c17.066-12.782,32.146-27.85,44.918-44.885l90.506-13.148
			c3.733-0.545,6.906-3.011,8.354-6.499c1.444-3.489,0.949-7.476-1.307-10.502l-54.664-73.321c3.026-21.074,3.03-42.394,0.01-63.501
			l54.707-73.302c2.255-3.023,2.754-7.014,1.312-10.502s-4.614-5.958-8.351-6.502l-90.509-13.195
			c-12.785-17.068-27.855-32.148-44.885-44.917L401.978,9.229c-0.542-3.733-3.011-6.906-6.496-8.354
			c-3.488-1.444-7.479-0.946-10.502,1.307l-73.324,54.664c-20.991-3.005-42.463-3.008-63.498-0.009L174.847,2.129
			c-3.023-2.258-7.017-2.76-10.502-1.313c-3.488,1.444-5.958,4.615-6.502,8.351L144.65,99.679
			c-17.068,12.785-32.145,27.852-44.917,44.884L9.227,157.712c-3.733,0.545-6.906,3.011-8.354,6.5
			c-1.444,3.488-0.949,7.476,1.307,10.502l54.664,73.321c-3.023,21.071-3.026,42.387-0.009,63.499L2.131,384.838
			C-0.127,387.861-0.626,391.851,0.818,395.34z"/>
	</g>
</g>
<g>
</g>
<g>
</g>
<g>
</g>
<g>
</g>
<g>
</g>
<g>
</g>
<g>
</g>
<g>
</g>
<g>
</g>
<g>
</g>
<g>
</g>
<g>
</g>
<g>
</g>
<g>
</g>
<g>
</g>
</svg>
